<svg width="48" height="48" viewBox="0 0 48 48" fill="none" xmlns="http://www.w3.org/2000/svg">
<path d="M16 13C15.4477 13 15 13.4477 15 14C15 14.5523 15.4477 15 16 15H32C32.5523 15 33 14.5523 33 14C33 13.4477 32.5523 13 32 13H16Z" fill="#A4EAFF"/>
<path d="M15 24C15 23.4477 15.4477 23 16 23H28C28.5523 23 29 23.4477 29 24C29 24.5523 28.5523 25 28 25H16C15.4477 25 15 24.5523 15 24Z" fill="#A4EAFF"/>
<path d="M16 33C15.4477 33 15 33.4477 15 34C15 34.5523 15.4477 35 16 35H24C24.5523 35 25 34.5523 25 34C25 33.4477 24.5523 33 24 33H16Z" fill="#A4EAFF"/>
<path fill-rule="evenodd" clip-rule="evenodd" d="M10 8C10 5.79086 11.7909 4 14 4H34C36.2091 4 38 5.79086 38 8V40C38 42.2091 36.2091 44 34 44H14C11.7909 44 10 42.2091 10 40V8ZM14 8H34V40H14L14 8Z" fill="#A4EAFF"/>
</svg>
