<svg width="40" height="42" viewBox="0 0 40 42" fill="none" xmlns="http://www.w3.org/2000/svg">
<path fill-rule="evenodd" clip-rule="evenodd" d="M22.6575 1.68639C21.1419 0.339238 18.8581 0.339238 17.3426 1.68639L0.671294 16.5053C-0.154272 17.2391 -0.228633 18.5033 0.505203 19.3288C1.23904 20.1544 2.50318 20.2288 3.32875 19.4949L6.00002 17.1205V40.0001C6.00002 41.1047 6.89545 42.0001 8.00002 42.0001H32C33.1046 42.0001 34 41.1047 34 40.0001V17.1205L36.6713 19.4949C37.4969 20.2288 38.761 20.1544 39.4948 19.3288C40.2287 18.5033 40.1543 17.2391 39.3288 16.5053L22.6575 1.68639ZM30.4896 14.0001L20 4.67603L9.51042 14.0001H30.4896ZM30 38.0001V18.0001H10V38.0001H14V24.0001C14 22.8955 14.8955 22.0001 16 22.0001H24C25.1046 22.0001 26 22.8955 26 24.0001V38.0001H30ZM22 38.0001H18V26.0001H22V38.0001Z" fill="#A4EAFF"/>
</svg>
