<svg width="36" height="34" viewBox="0 0 36 34" fill="none" xmlns="http://www.w3.org/2000/svg">
<path d="M11.4001 1.99998C11.4001 1.22678 10.7733 0.599976 10.0001 0.599976C9.2269 0.599976 8.6001 1.22678 8.6001 1.99998V8.59998H2.0001C1.2269 8.59998 0.600098 9.22678 0.600098 9.99998C0.600098 10.7732 1.2269 11.4 2.0001 11.4H8.6001V18C8.6001 18.7732 9.2269 19.4 10.0001 19.4C10.7733 19.4 11.4001 18.7732 11.4001 18V11.4H18.0001C18.7733 11.4 19.4001 10.7732 19.4001 9.99998C19.4001 9.22678 18.7733 8.59998 18.0001 8.59998H11.4001V1.99998Z" fill="#A4EAFF"/>
<path d="M29.9063 14.6666C29.9063 17.244 27.7097 19.3333 25.0001 19.3333C22.2905 19.3333 20.0939 17.244 20.0939 14.6666C20.0939 12.0893 22.2905 9.99998 25.0001 9.99998C27.7097 9.99998 29.9063 12.0893 29.9063 14.6666Z" fill="#A4EAFF"/>
<path d="M15.2443 24.2895C15.4416 22.9758 16.6245 22 18.0197 22H31.9805C33.3757 22 34.5586 22.9758 34.7559 24.2895L35.9857 32.4781C36.1064 33.2813 35.4511 34 34.5981 34H15.4021C14.5491 34 13.8938 33.2813 14.0144 32.4781L15.2443 24.2895Z" fill="#A4EAFF"/>
</svg>
