<svg width="48" height="48" viewBox="0 0 48 48" fill="none" xmlns="http://www.w3.org/2000/svg">
<path d="M17.4001 9.99998C17.4001 9.22678 16.7733 8.59998 16.0001 8.59998C15.2269 8.59998 14.6001 9.22678 14.6001 9.99998V16.6H8.0001C7.2269 16.6 6.6001 17.2268 6.6001 18C6.6001 18.7732 7.2269 19.4 8.0001 19.4H14.6001V26C14.6001 26.7732 15.2269 27.4 16.0001 27.4C16.7733 27.4 17.4001 26.7732 17.4001 26V19.4H24.0001C24.7733 19.4 25.4001 18.7732 25.4001 18C25.4001 17.2268 24.7733 16.6 24.0001 16.6H17.4001V9.99998Z" fill="#A4EAFF"/>
<path d="M35.9063 22.6666C35.9063 25.244 33.7097 27.3333 31.0001 27.3333C28.2905 27.3333 26.0939 25.244 26.0939 22.6666C26.0939 20.0893 28.2905 18 31.0001 18C33.7097 18 35.9063 20.0893 35.9063 22.6666Z" fill="#A4EAFF"/>
<path d="M21.2443 32.2895C21.4416 30.9758 22.6245 30 24.0197 30H37.9805C39.3757 30 40.5586 30.9758 40.7559 32.2895L41.9857 40.4781C42.1064 41.2813 41.4511 42 40.5981 42H21.4021C20.5491 42 19.8938 41.2813 20.0144 40.4781L21.2443 32.2895Z" fill="#A4EAFF"/>
</svg>
