<svg width="48" height="49" viewBox="0 0 48 49" fill="none" xmlns="http://www.w3.org/2000/svg">
<path fill-rule="evenodd" clip-rule="evenodd" d="M43.6149 12.3224C44.1284 11.8089 44.1284 10.9765 43.6149 10.463L38.037 4.88508C37.5235 4.37164 36.6911 4.37164 36.1776 4.88508L32.459 8.60372L5.49882 35.5639L4.02626 42.9267C3.84227 43.8466 4.65336 44.6577 5.57331 44.4737L12.9361 43.0012L39.8963 16.041L43.6149 12.3224ZM34.7634 12.3224L33.1661 10.725L7.62014 36.271L9.21747 37.8683L34.7634 12.3224ZM36.1776 13.7366L10.6317 39.2825L12.229 40.8799L37.775 15.3339L36.1776 13.7366ZM10.0579 41.5372L8.51036 39.9896L6.96279 38.4421L6.18901 42.311L10.0579 41.5372ZM39.1892 13.9197L34.5803 9.31083L37.1073 6.78385L41.7162 11.3927L39.1892 13.9197Z" fill="#A4EAFF"/>
</svg>
