<svg width="48" height="48" viewBox="0 0 48 48" fill="none" xmlns="http://www.w3.org/2000/svg">
<path d="M24 6C20.6863 6 18 8.68629 18 12V18C18 19.1046 18.8954 20 20 20C21.1046 20 22 19.1046 22 18V12C22 10.8954 22.8954 10 24 10H36C37.1046 10 38 10.8954 38 12V36C38 37.1046 37.1046 38 36 38H24C22.8954 38 22 37.1046 22 36V30C22 28.8954 21.1046 28 20 28C18.8954 28 18 28.8954 18 30V36C18 39.3137 20.6863 42 24 42H36C39.3137 42 42 39.3137 42 36V12C42 8.68629 39.3137 6 36 6H24Z" fill="#A4EAFF"/>
<path d="M13.4142 20.4142C14.1953 19.6332 14.1953 18.3668 13.4142 17.5858C12.6332 16.8047 11.3668 16.8047 10.5858 17.5858L5.5858 22.5858C4.85436 23.3172 4.80136 24.4857 5.46357 25.2804L10.4636 31.2804C11.1707 32.1289 12.4318 32.2436 13.2804 31.5364C14.1289 30.8293 14.2436 29.5682 13.5365 28.7196L11.2701 26H26C27.1046 26 28 25.1046 28 24C28 22.8954 27.1046 22 26 22H11.8284L13.4142 20.4142Z" fill="#A4EAFF"/>
</svg>
